<svg id="visual" viewBox="0 0 900 600" width="900" height="600" xmlns="http://www.w3.org/2000/svg" xmlns:xlink="http://www.w3.org/1999/xlink" version="1.1"><rect x="0" y="0" width="900" height="600" fill="#fff"></rect><path d="M0 561L16.7 553.2C33.3 545.3 66.7 529.7 100 528.8C133.3 528 166.7 542 200 550C233.3 558 266.7 560 300 554.3C333.3 548.7 366.7 535.3 400 535C433.3 534.7 466.7 547.3 500 551.7C533.3 556 566.7 552 600 546.8C633.3 541.7 666.7 535.3 700 531.2C733.3 527 766.7 525 800 530.8C833.3 536.7 866.7 550.3 883.3 557.2L900 564L900 601L883.3 601C866.7 601 833.3 601 800 601C766.7 601 733.3 601 700 601C666.7 601 633.3 601 600 601C566.7 601 533.3 601 500 601C466.7 601 433.3 601 400 601C366.7 601 333.3 601 300 601C266.7 601 233.3 601 200 601C166.7 601 133.3 601 100 601C66.7 601 33.3 601 16.7 601L0 601Z" fill="#ff0017" stroke-linecap="round" stroke-linejoin="miter"></path></svg>